<?xml version="1.0" encoding="UTF-8"?>
<svg width="24px" height="24px" viewBox="0 0 24 24" version="1.1" xmlns="http://www.w3.org/2000/svg">
    <g stroke="none" stroke-width="1" fill="none" fill-rule="evenodd">
        <path d="M12,14 C13.66,14 15,12.66 15,11 L15,5 C15,3.34 13.66,2 12,2 C10.34,2 9,3.34 9,5 L9,11 C9,12.66 10.34,14 12,14 Z" fill="currentColor"/>
        <path d="M17.91,11 C17.91,11 17.91,11 17.91,11 L17.91,11 C17.48,11 17.13,11.35 17.13,11.78 L17.13,11.78 C17.13,14.89 14.59,17.43 11.48,17.43 C8.37,17.43 5.83,14.89 5.83,11.78 L5.83,11.78 C5.83,11.35 5.48,11 5.05,11 C4.62,11 4.27,11.35 4.27,11.78 L4.27,11.78 C4.27,15.39 7.05,18.37 10.57,18.72 L10.57,21 L7.70,21 C7.31,21 7,21.31 7,21.70 C7,22.09 7.31,22.40 7.70,22.40 L15.26,22.40 C15.65,22.40 15.96,22.09 15.96,21.70 C15.96,21.31 15.65,21 15.26,21 L12.39,21 L12.39,18.72 C15.91,18.37 18.69,15.39 18.69,11.78 L18.69,11.78 C18.69,11.35 18.34,11 17.91,11 Z" fill="currentColor"/>
    </g>
</svg>